<svg width="142" height="42" viewBox="0 0 142 42" fill="none" xmlns="http://www.w3.org/2000/svg">
<rect width="142" height="42" fill="#11131B"/>
<path d="M52.1655 11.8505C43.2103 10.0595 42.6133 9.46246 41.27 8.71619C38.8819 10.358 38.8819 12.2983 38.8819 13.1938C39.1642 14.6863 39.0312 14.8356 38.8819 15.2834C36.6431 20.0097 32.1357 29.6416 32.0163 30.358C31.8969 31.0744 32.464 31.2535 32.7625 31.2535H38.8819L41.4193 26.6266C41.9168 26.7261 43.1804 27.0445 44.2551 27.5222C45.3297 27.9998 45.3994 28.3182 45.2998 28.4177L45.8969 31.2535H52.1655V11.8505Z" fill="white"/>
<path d="M43.5088 17.2235C43.867 16.5071 44.6531 16.4275 45.0014 16.4773C45.2004 16.4773 45.6581 16.537 45.8969 16.7758C46.1357 17.0146 46.1954 17.3728 46.1954 17.5221C46.2452 18.6663 46.3148 21.0743 46.1954 21.5519C46.076 22.0295 45.4491 22.1489 45.1506 22.1489C44.6034 21.9997 43.3596 21.6713 42.7626 21.5519C42.1656 21.4325 42.3148 20.5071 42.4641 20.0594C42.6631 19.4126 43.1506 17.94 43.5088 17.2235Z" fill="#11131B"/>
<ellipse cx="74.6865" cy="19.4635" rx="0.597015" ry="2.08955" fill="white"/>
<path d="M53.9404 27.4215L58.1195 31.3021C58.4777 31.4215 58.7663 31.2524 58.8658 31.1528C60.5076 29.5608 63.8508 26.317 64.0896 26.0782C64.3285 25.8394 64.7862 25.9787 64.9852 26.0782C66.826 27.6205 72.5673 30.7163 73.0449 30.9551C73.5225 31.1939 74.0399 31.0546 74.2389 30.9551L76.5772 29.7859C77.5324 29.3083 78.6668 28.2448 78.9653 27.6964C78.9653 26.4538 78.5772 24.0956 78.219 23.618C77.8608 23.1404 77.3732 23.3195 77.1742 23.4687C76.9255 23.6677 76.2665 23.9456 75.6817 24.0657C74.8359 24.2395 74.2389 24.1901 74.2389 24.1901C74.2389 24.1901 69.2538 21.4625 69.015 21.1043C68.7765 20.7466 68.8655 20.6576 69.0144 20.5088L69.015 20.5081C70.6071 19.2644 74.0001 17.1827 74.2389 16.8245C74.4777 16.4663 74.3384 16.1777 74.2389 16.0782C73.3434 15.0334 71.4329 12.8543 70.9553 12.4961C70.4777 12.1379 70.0598 12.3469 69.9105 12.4961C68.219 13.9887 64.7464 17.0334 64.3882 17.2722C64.0299 17.5111 63.7414 17.2722 63.6419 17.123C62.5474 15.7797 60.2687 13.0036 59.9105 12.6454C59.5523 12.2872 59.2638 12.3966 59.1643 12.4961C57.6717 13.3917 54.627 15.2126 54.3882 15.332C54.1493 15.4514 54.2887 15.7797 54.3882 15.929C55.5324 17.6703 57.8807 21.2126 58.1195 21.4514C58.3583 21.6902 58.219 21.9489 58.1195 22.0484C56.7762 23.4912 54.0299 26.4364 53.7911 26.6752C53.5523 26.9141 53.7911 27.2723 53.9404 27.4215Z" fill="white"/>
<path d="M77.5225 15.5827C77.5225 15.9409 77.821 16.3787 77.9702 16.4782C78.418 16.4284 79.2916 16.6165 79.612 16.7767C80.209 17.0752 80.3583 17.6722 80.3583 17.9707C80.3583 17.9707 80.4301 19.1839 80.209 19.911C79.9502 20.7623 79.4926 20.8961 79.015 21.8513C78.5374 22.8066 78.6667 23.0454 78.7165 23.3439C78.9155 24.7867 79.6419 29.3729 79.7613 29.6117C79.8807 29.8505 80.3085 30.1092 80.5075 30.2087C82.2488 30.557 85.821 31.2535 86.1792 31.2535C86.5374 31.2535 86.6269 30.756 86.6269 30.5072C86.3782 25.1838 85.8508 14.3878 85.7314 13.7908C85.612 13.1938 85.1842 13.144 84.9851 13.1938C82.7961 13.4425 78.3284 13.9699 77.9702 14.0893C77.612 14.2087 77.5225 14.4376 77.5225 14.5371V15.5827Z" fill="white"/>
<rect x="76.3537" y="7.11166" width="7.9972" height="6.44606" rx="0.75" transform="rotate(-7.1871 76.3537 7.11166)" fill="white" stroke="#11131B" stroke-width="0.5" stroke-linejoin="round"/>
<path d="M88.7762 7.53125C88.7904 6.57458 87.8504 6.05061 87.3785 5.9082L87.1887 6.53728C88.5608 6.53958 88.439 8.45904 88.2066 9.41849C88.3906 9.18801 88.762 8.48791 88.7762 7.53125Z" fill="white"/>
<path d="M88.4247 9.82755C88.5671 9.35574 88.8817 9.45067 88.7096 8.88392C88.5718 8.43053 88.1279 8.53678 87.9232 8.64658C87.5956 8.82227 87.8364 8.93414 87.7808 9.1184L87.6384 9.59021L88.4247 9.82755Z" fill="white" stroke="white" stroke-width="0.5"/>
<path d="M79.7821 1.50443L88.2369 5.31174C88.4074 5.3885 88.4364 5.61836 88.2903 5.73503L81.0453 11.5221C80.972 11.5806 80.8721 11.5932 80.7866 11.5547L72.3317 7.74742C72.1613 7.67066 72.1323 7.4408 72.2784 7.32413L79.5234 1.53705C79.5967 1.47852 79.6965 1.46592 79.7821 1.50443Z" fill="white" stroke="#11131B" stroke-width="0.5" stroke-linejoin="round"/>
<path d="M82.1493 4.23972L83.7911 4.98599L85.1344 5.58301L75.4329 7.2248L80.5075 9.46361L80.0598 3.19495L82.1493 4.23972ZM82.1493 4.23972L81.5523 4.98599" stroke="#11131B" stroke-width="0.5" stroke-linejoin="round"/>
<path d="M88.1195 13.1429C88.0001 12.5459 88.3683 12.0981 88.5673 11.9489L93.7912 9.56084C95.4827 8.76482 99.1344 7.08322 100.209 6.72501C101.284 6.3668 101.652 7.07327 101.702 7.47128C101.751 8.46631 101.851 10.6355 101.851 11.3519C101.851 12.0683 101.453 12.3469 101.254 12.3967C100.299 12.9937 99.2638 14.2374 98.8658 14.7847C98.7165 15.0832 98.3583 15.7399 98.1195 15.9787C97.8807 16.2175 97.423 16.0782 97.224 15.9787C96.826 15.6802 95.9404 15.0832 95.5822 15.0832C95.224 15.0832 95.0349 15.2822 94.9852 15.3817L94.6867 16.2773C94.8359 17.6205 95.2837 18.2175 95.8807 18.8146C96.3583 19.2922 96.7762 19.0136 96.9255 18.8146C97.025 18.4663 97.3135 17.6802 97.6718 17.322C98.03 16.9638 98.816 17.1728 99.1643 17.322C99.6121 17.6205 100.657 18.2474 101.254 18.3668C102 18.5161 102.299 18.3668 102.896 18.3668C103.373 18.3668 103.493 18.7648 103.493 18.9638C103.443 19.6106 103.343 21.0235 103.343 21.5011C103.343 21.9787 103.045 22.0981 102.896 22.0981C101.602 22.4962 98.9553 23.3519 98.7165 23.5907C98.418 23.8892 98.2688 24.0384 98.418 24.4862C98.5374 24.8444 98.9653 25.0335 99.1643 25.0832L108.12 25.3817C108.269 25.4812 108.657 25.7996 109.015 26.2773C109.373 26.7549 109.164 27.1728 109.015 27.322C108.567 28.3171 108.269 30.1069 107.522 30.7549C106.776 31.4028 104.886 30.8046 102.149 31.0534C99.413 31.3021 93.7912 31.7698 93.1941 31.6504C92.5971 31.531 92.3484 30.9041 92.2986 30.6056C90.9553 25.0335 88.2389 13.7399 88.1195 13.1429Z" fill="white"/>
<path d="M11.574 41.108C11.018 41.108 10.5547 41.0829 10.1841 41.0327C9.70396 40.9657 9.27014 40.8442 8.88266 40.6683C8.83212 40.6432 8.75631 40.6055 8.65523 40.5553C8.56257 40.4966 8.48254 40.4422 8.41515 40.392C8.13718 40.1575 7.90974 39.8936 7.73285 39.6005C7.58964 39.4497 7.45908 39.2404 7.34115 38.9724C7.11372 38.3861 7 37.6868 7 36.8744C7 35.9196 7.19795 35.0821 7.59386 34.3618C7.93923 33.675 8.39831 33.139 8.97111 32.7538C9.55233 32.3601 10.2094 32.1382 10.9422 32.0879L11.0938 32.0754H11.2581C11.9151 32.0754 12.6227 32.2094 13.3808 32.4774C13.4482 32.5109 13.5956 32.5779 13.8231 32.6784C14.0505 32.7789 14.2611 32.892 14.4548 33.0176L14.2274 34.6508L13.4819 34.4623C13.2124 34.3953 12.9597 34.3618 12.7238 34.3618C12.2521 34.3618 11.8983 34.5377 11.6624 34.8894C11.4097 35.258 11.2834 35.8568 11.2834 36.6859C11.2834 36.9539 11.296 37.1424 11.3213 37.2513C11.355 37.7789 11.4729 38.1683 11.6751 38.4196C11.8688 38.6374 12.1005 38.7462 12.37 38.7462C12.6227 38.7462 12.9049 38.6667 13.2166 38.5075C13.4861 38.3819 13.781 38.2102 14.1011 37.9925L14.2274 40.0528C13.8989 40.3543 13.4777 40.6097 12.9639 40.8191C12.4753 41.0117 12.012 41.108 11.574 41.108Z" fill="white"/>
<path d="M11.574 41.108C11.018 41.108 10.5547 41.0829 10.1841 41.0327C9.70396 40.9657 9.27014 40.8442 8.88266 40.6683C8.83212 40.6432 8.75631 40.6055 8.65523 40.5553C8.56257 40.4966 8.48254 40.4422 8.41515 40.392C8.13718 40.1575 7.90974 39.8936 7.73285 39.6005C7.58964 39.4497 7.45908 39.2404 7.34115 38.9724C7.11372 38.3861 7 37.6868 7 36.8744C7 35.9196 7.19795 35.0821 7.59386 34.3618C7.93923 33.675 8.39831 33.139 8.97111 32.7538C9.55233 32.3601 10.2094 32.1382 10.9422 32.0879L11.0938 32.0754H11.2581C11.9151 32.0754 12.6227 32.2094 13.3808 32.4774C13.4482 32.5109 13.5956 32.5779 13.8231 32.6784C14.0505 32.7789 14.2611 32.892 14.4548 33.0176L14.2274 34.6508L13.4819 34.4623C13.2124 34.3953 12.9597 34.3618 12.7238 34.3618C12.2521 34.3618 11.8983 34.5377 11.6624 34.8894C11.4097 35.258 11.2834 35.8568 11.2834 36.6859C11.2834 36.9539 11.296 37.1424 11.3213 37.2513C11.355 37.7789 11.4729 38.1683 11.6751 38.4196C11.8688 38.6374 12.1005 38.7462 12.37 38.7462C12.6227 38.7462 12.9049 38.6667 13.2166 38.5075C13.4861 38.3819 13.781 38.2102 14.1011 37.9925L14.2274 40.0528C13.8989 40.3543 13.4777 40.6097 12.9639 40.8191C12.4753 41.0117 12.012 41.108 11.574 41.108Z" fill="url(#paint0_linear)"/>
<path d="M21.5658 41.108C20.5634 41.108 19.7716 41.0285 19.1903 40.8693C18.3817 40.66 17.7667 40.2705 17.3456 39.701C16.857 39.0226 16.6127 38.0804 16.6127 36.8744C16.6127 36.0117 16.7096 35.2789 16.9033 34.6759C17.0971 34.0729 17.3961 33.5787 17.8004 33.1935C18.2048 32.8082 18.7228 32.5276 19.3546 32.3518C19.9948 32.1675 20.774 32.0754 21.6921 32.0754C22.4081 32.0754 23.082 32.1843 23.7138 32.402C24.4887 32.6784 25.091 33.1013 25.5206 33.6709C26.0513 34.3492 26.3167 35.2412 26.3167 36.3467C26.3167 37.6365 26.1229 38.6415 25.7354 39.3618C25.3479 40.0235 24.7878 40.4925 24.0549 40.7688C23.4569 40.995 22.6271 41.108 21.5658 41.108ZM21.4647 39.8894C21.5658 39.8894 21.6458 39.8266 21.7048 39.701C21.8311 39.433 21.9196 39.0101 21.9701 38.4322C22.0206 37.9045 22.0459 37.4062 22.0459 36.9372V36.1206C22.0459 35.7521 22.0206 35.304 21.9701 34.7764C21.9196 34.2069 21.8311 33.7755 21.7048 33.4824C21.6374 33.34 21.5573 33.2688 21.4647 33.2688C21.2794 33.2688 21.1446 33.4447 21.0604 33.7965C20.9761 34.2822 20.934 34.7219 20.934 35.1156C20.9087 35.4506 20.8961 35.974 20.8961 36.6859C20.8961 37.1633 20.9087 37.557 20.934 37.8668C20.934 38.2605 20.9761 38.7169 21.0604 39.2362C21.1446 39.6717 21.2794 39.8894 21.4647 39.8894Z" fill="white"/>
<path d="M21.5658 41.108C20.5634 41.108 19.7716 41.0285 19.1903 40.8693C18.3817 40.66 17.7667 40.2705 17.3456 39.701C16.857 39.0226 16.6127 38.0804 16.6127 36.8744C16.6127 36.0117 16.7096 35.2789 16.9033 34.6759C17.0971 34.0729 17.3961 33.5787 17.8004 33.1935C18.2048 32.8082 18.7228 32.5276 19.3546 32.3518C19.9948 32.1675 20.774 32.0754 21.6921 32.0754C22.4081 32.0754 23.082 32.1843 23.7138 32.402C24.4887 32.6784 25.091 33.1013 25.5206 33.6709C26.0513 34.3492 26.3167 35.2412 26.3167 36.3467C26.3167 37.6365 26.1229 38.6415 25.7354 39.3618C25.3479 40.0235 24.7878 40.4925 24.0549 40.7688C23.4569 40.995 22.6271 41.108 21.5658 41.108ZM21.4647 39.8894C21.5658 39.8894 21.6458 39.8266 21.7048 39.701C21.8311 39.433 21.9196 39.0101 21.9701 38.4322C22.0206 37.9045 22.0459 37.4062 22.0459 36.9372V36.1206C22.0459 35.7521 22.0206 35.304 21.9701 34.7764C21.9196 34.2069 21.8311 33.7755 21.7048 33.4824C21.6374 33.34 21.5573 33.2688 21.4647 33.2688C21.2794 33.2688 21.1446 33.4447 21.0604 33.7965C20.9761 34.2822 20.934 34.7219 20.934 35.1156C20.9087 35.4506 20.8961 35.974 20.8961 36.6859C20.8961 37.1633 20.9087 37.557 20.934 37.8668C20.934 38.2605 20.9761 38.7169 21.0604 39.2362C21.1446 39.6717 21.2794 39.8894 21.4647 39.8894Z" fill="url(#paint1_linear)"/>
<path d="M30.0994 40.8442C30.0151 40.8442 29.9477 40.8358 29.8972 40.8191H29.3286L28.76 40.6809L28.7095 40.5804C28.701 40.5804 28.6968 40.5343 28.6968 40.4422C28.6968 40.325 28.6926 40.2286 28.6842 40.1533L28.6716 39.5754C28.6631 39.4497 28.6589 39.2613 28.6589 39.0101L28.6337 38.0427C28.6337 37.8333 28.6421 37.5444 28.6589 37.1759L28.6716 36.7487C28.6884 36.4807 28.6968 36.041 28.6968 35.4296V35.1784C28.68 35.1533 28.6716 35.1072 28.6716 35.0402L28.6589 34.9523C28.6589 34.7429 28.6716 34.5251 28.6968 34.299C28.7137 34.0142 28.7221 33.7546 28.7221 33.5201L28.7095 33.1683C28.701 33.0762 28.6968 32.9673 28.6968 32.8417C28.6968 32.8333 28.6884 32.8208 28.6716 32.804C28.6631 32.7873 28.6589 32.7705 28.6589 32.7538C28.6589 32.67 28.6926 32.5988 28.76 32.5402C28.8274 32.4816 28.9116 32.4397 29.0127 32.4146C29.1475 32.3727 29.3202 32.3518 29.5308 32.3518H32.6517C32.6601 32.3518 32.6727 32.3601 32.6896 32.3769C32.7064 32.3936 32.7233 32.4062 32.7401 32.4146C32.8075 32.4732 32.8918 32.5863 32.9928 32.7538C33.0181 32.804 33.0434 32.8626 33.0687 32.9296C33.1023 32.9883 33.1445 33.0846 33.195 33.2186C33.254 33.3526 33.334 33.5578 33.4351 33.8342L33.5867 34.2236C33.6541 34.3492 33.7299 34.5293 33.8141 34.7638C33.8394 34.8308 33.8647 34.8978 33.8899 34.9648C33.9236 35.0318 33.9531 35.0988 33.9784 35.1658C33.9952 35.2245 34.0121 35.2705 34.0289 35.304C34.0542 35.3291 34.0669 35.3459 34.0669 35.3543C34.1258 35.4883 34.189 35.5553 34.2564 35.5553C34.3406 35.5553 34.408 35.4883 34.4585 35.3543C34.467 35.3459 34.4754 35.3291 34.4838 35.304C34.4922 35.2705 34.5133 35.2203 34.547 35.1533L34.7365 34.7387L35.2419 33.6709L35.4567 33.2186C35.482 33.1516 35.4989 33.0972 35.5073 33.0553C35.5241 33.005 35.541 32.9715 35.5578 32.9548C35.5915 32.8794 35.6715 32.7496 35.7979 32.5653C35.84 32.4983 35.8779 32.4481 35.9116 32.4146C35.9369 32.4062 35.9537 32.3936 35.9621 32.3769C35.9706 32.3601 35.9832 32.3518 36 32.3518H39.8791C39.8959 32.3518 39.917 32.4146 39.9423 32.5402L39.9802 33.7714C39.997 34.1231 40.0055 34.6759 40.0055 35.4296V36.1583C40.0055 36.443 39.9928 36.7613 39.9675 37.1131C39.9423 37.4648 39.9254 37.691 39.917 37.7915L39.8917 38.0427V38.4824C39.9002 38.5997 39.9044 38.7755 39.9044 39.0101C39.9044 39.2613 39.9086 39.4497 39.917 39.5754C39.917 39.8183 39.9254 39.9858 39.9423 40.0779V40.5804L39.9044 40.6809L39.3358 40.8191H38.7672C38.7082 40.8358 38.6366 40.8442 38.5524 40.8442C38.4008 40.8442 38.1902 40.8358 37.9206 40.8191L37.6047 40.8065C37.5458 40.7982 37.4784 40.7898 37.4026 40.7814C37.3268 40.773 37.2341 40.7688 37.1246 40.7688L36.6318 40.7312C36.615 40.7312 36.6023 40.7353 36.5939 40.7437H36.4928C36.4507 40.7437 36.4254 40.6977 36.417 40.6055C36.3665 40.438 36.3412 40.1533 36.3412 39.7513C36.3412 39.4832 36.337 39.2739 36.3286 39.1231L36.3159 38.4447C36.3075 38.294 36.3033 38.0762 36.3033 37.7915C36.3033 37.7245 36.2738 37.691 36.2149 37.691C36.1812 37.691 36.1475 37.7328 36.1138 37.8166L35.9748 38.1558L35.8611 38.4698C35.8442 38.5201 35.8274 38.5704 35.8105 38.6206C35.7937 38.6709 35.7726 38.7169 35.7473 38.7588L35.6842 38.9095C35.6084 39.0771 35.5115 39.2655 35.3936 39.4749C35.2672 39.701 35.1114 39.8811 34.9261 40.0151C34.825 40.0737 34.7365 40.103 34.6607 40.103H34.4712C34.3701 40.103 34.2859 40.0946 34.2185 40.0779H33.6878C33.3508 39.5419 33.035 38.9556 32.7401 38.3191L32.5506 37.8543C32.5001 37.7454 32.4664 37.691 32.4495 37.691C32.3906 37.691 32.3611 37.7245 32.3611 37.7915V38.3819C32.3611 38.9682 32.3527 39.3995 32.3358 39.6759C32.319 40.1114 32.2895 40.4129 32.2474 40.5804C32.2389 40.6893 32.2137 40.7437 32.1716 40.7437H32.0831L32.0199 40.7312C31.7335 40.7479 31.5061 40.7647 31.3376 40.7814C31.2365 40.7898 31.0596 40.8023 30.8069 40.8191C30.5542 40.8358 30.3184 40.8442 30.0994 40.8442Z" fill="white"/>
<path d="M30.0994 40.8442C30.0151 40.8442 29.9477 40.8358 29.8972 40.8191H29.3286L28.76 40.6809L28.7095 40.5804C28.701 40.5804 28.6968 40.5343 28.6968 40.4422C28.6968 40.325 28.6926 40.2286 28.6842 40.1533L28.6716 39.5754C28.6631 39.4497 28.6589 39.2613 28.6589 39.0101L28.6337 38.0427C28.6337 37.8333 28.6421 37.5444 28.6589 37.1759L28.6716 36.7487C28.6884 36.4807 28.6968 36.041 28.6968 35.4296V35.1784C28.68 35.1533 28.6716 35.1072 28.6716 35.0402L28.6589 34.9523C28.6589 34.7429 28.6716 34.5251 28.6968 34.299C28.7137 34.0142 28.7221 33.7546 28.7221 33.5201L28.7095 33.1683C28.701 33.0762 28.6968 32.9673 28.6968 32.8417C28.6968 32.8333 28.6884 32.8208 28.6716 32.804C28.6631 32.7873 28.6589 32.7705 28.6589 32.7538C28.6589 32.67 28.6926 32.5988 28.76 32.5402C28.8274 32.4816 28.9116 32.4397 29.0127 32.4146C29.1475 32.3727 29.3202 32.3518 29.5308 32.3518H32.6517C32.6601 32.3518 32.6727 32.3601 32.6896 32.3769C32.7064 32.3936 32.7233 32.4062 32.7401 32.4146C32.8075 32.4732 32.8918 32.5863 32.9928 32.7538C33.0181 32.804 33.0434 32.8626 33.0687 32.9296C33.1023 32.9883 33.1445 33.0846 33.195 33.2186C33.254 33.3526 33.334 33.5578 33.4351 33.8342L33.5867 34.2236C33.6541 34.3492 33.7299 34.5293 33.8141 34.7638C33.8394 34.8308 33.8647 34.8978 33.8899 34.9648C33.9236 35.0318 33.9531 35.0988 33.9784 35.1658C33.9952 35.2245 34.0121 35.2705 34.0289 35.304C34.0542 35.3291 34.0669 35.3459 34.0669 35.3543C34.1258 35.4883 34.189 35.5553 34.2564 35.5553C34.3406 35.5553 34.408 35.4883 34.4585 35.3543C34.467 35.3459 34.4754 35.3291 34.4838 35.304C34.4922 35.2705 34.5133 35.2203 34.547 35.1533L34.7365 34.7387L35.2419 33.6709L35.4567 33.2186C35.482 33.1516 35.4989 33.0972 35.5073 33.0553C35.5241 33.005 35.541 32.9715 35.5578 32.9548C35.5915 32.8794 35.6715 32.7496 35.7979 32.5653C35.84 32.4983 35.8779 32.4481 35.9116 32.4146C35.9369 32.4062 35.9537 32.3936 35.9621 32.3769C35.9706 32.3601 35.9832 32.3518 36 32.3518H39.8791C39.8959 32.3518 39.917 32.4146 39.9423 32.5402L39.9802 33.7714C39.997 34.1231 40.0055 34.6759 40.0055 35.4296V36.1583C40.0055 36.443 39.9928 36.7613 39.9675 37.1131C39.9423 37.4648 39.9254 37.691 39.917 37.7915L39.8917 38.0427V38.4824C39.9002 38.5997 39.9044 38.7755 39.9044 39.0101C39.9044 39.2613 39.9086 39.4497 39.917 39.5754C39.917 39.8183 39.9254 39.9858 39.9423 40.0779V40.5804L39.9044 40.6809L39.3358 40.8191H38.7672C38.7082 40.8358 38.6366 40.8442 38.5524 40.8442C38.4008 40.8442 38.1902 40.8358 37.9206 40.8191L37.6047 40.8065C37.5458 40.7982 37.4784 40.7898 37.4026 40.7814C37.3268 40.773 37.2341 40.7688 37.1246 40.7688L36.6318 40.7312C36.615 40.7312 36.6023 40.7353 36.5939 40.7437H36.4928C36.4507 40.7437 36.4254 40.6977 36.417 40.6055C36.3665 40.438 36.3412 40.1533 36.3412 39.7513C36.3412 39.4832 36.337 39.2739 36.3286 39.1231L36.3159 38.4447C36.3075 38.294 36.3033 38.0762 36.3033 37.7915C36.3033 37.7245 36.2738 37.691 36.2149 37.691C36.1812 37.691 36.1475 37.7328 36.1138 37.8166L35.9748 38.1558L35.8611 38.4698C35.8442 38.5201 35.8274 38.5704 35.8105 38.6206C35.7937 38.6709 35.7726 38.7169 35.7473 38.7588L35.6842 38.9095C35.6084 39.0771 35.5115 39.2655 35.3936 39.4749C35.2672 39.701 35.1114 39.8811 34.9261 40.0151C34.825 40.0737 34.7365 40.103 34.6607 40.103H34.4712C34.3701 40.103 34.2859 40.0946 34.2185 40.0779H33.6878C33.3508 39.5419 33.035 38.9556 32.7401 38.3191L32.5506 37.8543C32.5001 37.7454 32.4664 37.691 32.4495 37.691C32.3906 37.691 32.3611 37.7245 32.3611 37.7915V38.3819C32.3611 38.9682 32.3527 39.3995 32.3358 39.6759C32.319 40.1114 32.2895 40.4129 32.2474 40.5804C32.2389 40.6893 32.2137 40.7437 32.1716 40.7437H32.0831L32.0199 40.7312C31.7335 40.7479 31.5061 40.7647 31.3376 40.7814C31.2365 40.7898 31.0596 40.8023 30.8069 40.8191C30.5542 40.8358 30.3184 40.8442 30.0994 40.8442Z" fill="url(#paint2_linear)"/>
<path d="M43.9306 40.8442C43.8464 40.8442 43.779 40.8358 43.7284 40.8191H43.1598L42.5913 40.6809L42.5407 40.5804C42.5323 40.5804 42.5281 40.5343 42.5281 40.4422C42.5281 40.325 42.5239 40.2286 42.5154 40.1533L42.5028 39.5754C42.4944 39.4497 42.4902 39.2613 42.4902 39.0101L42.4649 38.0427C42.4649 37.8333 42.4733 37.5444 42.4902 37.1759L42.5028 36.7487C42.5197 36.4807 42.5281 36.041 42.5281 35.4296V35.1784C42.5112 35.1533 42.5028 35.1072 42.5028 35.0402L42.4902 34.9523C42.4902 34.7429 42.5028 34.5251 42.5281 34.299C42.5449 34.0142 42.5533 33.7546 42.5533 33.5201L42.5407 33.1683C42.5323 33.0762 42.5281 32.9673 42.5281 32.8417C42.5281 32.8333 42.5197 32.8208 42.5028 32.804C42.4944 32.7873 42.4902 32.7705 42.4902 32.7538C42.4902 32.67 42.5239 32.5988 42.5913 32.5402C42.6586 32.4816 42.7429 32.4397 42.844 32.4146C42.9787 32.3727 43.1514 32.3518 43.362 32.3518H46.4829C46.4914 32.3518 46.504 32.3601 46.5208 32.3769C46.5377 32.3936 46.5545 32.4062 46.5714 32.4146C46.6388 32.4732 46.723 32.5863 46.8241 32.7538C46.8494 32.804 46.8746 32.8626 46.8999 32.9296C46.9336 32.9883 46.9757 33.0846 47.0262 33.2186C47.0852 33.3526 47.1652 33.5578 47.2663 33.8342L47.4179 34.2236C47.4853 34.3492 47.5611 34.5293 47.6454 34.7638C47.6707 34.8308 47.6959 34.8978 47.7212 34.9648C47.7549 35.0318 47.7844 35.0988 47.8096 35.1658C47.8265 35.2245 47.8433 35.2705 47.8602 35.304C47.8855 35.3291 47.8981 35.3459 47.8981 35.3543C47.9571 35.4883 48.0202 35.5553 48.0876 35.5553C48.1719 35.5553 48.2392 35.4883 48.2898 35.3543C48.2982 35.3459 48.3066 35.3291 48.3151 35.304C48.3235 35.2705 48.3445 35.2203 48.3782 35.1533L48.5678 34.7387L49.0732 33.6709L49.288 33.2186C49.3132 33.1516 49.3301 33.0972 49.3385 33.0553C49.3554 33.005 49.3722 32.9715 49.3891 32.9548C49.4228 32.8794 49.5028 32.7496 49.6291 32.5653C49.6712 32.4983 49.7092 32.4481 49.7428 32.4146C49.7681 32.4062 49.785 32.3936 49.7934 32.3769C49.8018 32.3601 49.8144 32.3518 49.8313 32.3518H53.7103C53.7272 32.3518 53.7482 32.4146 53.7735 32.5402L53.8114 33.7714C53.8283 34.1231 53.8367 34.6759 53.8367 35.4296V36.1583C53.8367 36.443 53.8241 36.7613 53.7988 37.1131C53.7735 37.4648 53.7567 37.691 53.7482 37.7915L53.723 38.0427V38.4824C53.7314 38.5997 53.7356 38.7755 53.7356 39.0101C53.7356 39.2613 53.7398 39.4497 53.7482 39.5754C53.7482 39.8183 53.7567 39.9858 53.7735 40.0779V40.5804L53.7356 40.6809L53.167 40.8191H52.5984C52.5395 40.8358 52.4679 40.8442 52.3836 40.8442C52.232 40.8442 52.0214 40.8358 51.7519 40.8191L51.436 40.8065C51.377 40.7982 51.3096 40.7898 51.2338 40.7814C51.158 40.773 51.0653 40.7688 50.9558 40.7688L50.4631 40.7312C50.4462 40.7312 50.4336 40.7353 50.4252 40.7437H50.3241C50.282 40.7437 50.2567 40.6977 50.2483 40.6055C50.1977 40.438 50.1725 40.1533 50.1725 39.7513C50.1725 39.4832 50.1682 39.2739 50.1598 39.1231L50.1472 38.4447C50.1388 38.294 50.1345 38.0762 50.1345 37.7915C50.1345 37.7245 50.1051 37.691 50.0461 37.691C50.0124 37.691 49.9787 37.7328 49.945 37.8166L49.806 38.1558L49.6923 38.4698C49.6755 38.5201 49.6586 38.5704 49.6418 38.6206C49.6249 38.6709 49.6039 38.7169 49.5786 38.7588L49.5154 38.9095C49.4396 39.0771 49.3427 39.2655 49.2248 39.4749C49.0985 39.701 48.9426 39.8811 48.7573 40.0151C48.6562 40.0737 48.5678 40.103 48.4919 40.103H48.3024C48.2013 40.103 48.1171 40.0946 48.0497 40.0779H47.519C47.1821 39.5419 46.8662 38.9556 46.5714 38.3191L46.3818 37.8543C46.3313 37.7454 46.2976 37.691 46.2808 37.691C46.2218 37.691 46.1923 37.7245 46.1923 37.7915V38.3819C46.1923 38.9682 46.1839 39.3995 46.167 39.6759C46.1502 40.1114 46.1207 40.4129 46.0786 40.5804C46.0702 40.6893 46.0449 40.7437 46.0028 40.7437H45.9143L45.8512 40.7312C45.5648 40.7479 45.3373 40.7647 45.1689 40.7814C45.0678 40.7898 44.8909 40.8023 44.6382 40.8191C44.3855 40.8358 44.1496 40.8442 43.9306 40.8442Z" fill="white"/>
<path d="M43.9306 40.8442C43.8464 40.8442 43.779 40.8358 43.7284 40.8191H43.1598L42.5913 40.6809L42.5407 40.5804C42.5323 40.5804 42.5281 40.5343 42.5281 40.4422C42.5281 40.325 42.5239 40.2286 42.5154 40.1533L42.5028 39.5754C42.4944 39.4497 42.4902 39.2613 42.4902 39.0101L42.4649 38.0427C42.4649 37.8333 42.4733 37.5444 42.4902 37.1759L42.5028 36.7487C42.5197 36.4807 42.5281 36.041 42.5281 35.4296V35.1784C42.5112 35.1533 42.5028 35.1072 42.5028 35.0402L42.4902 34.9523C42.4902 34.7429 42.5028 34.5251 42.5281 34.299C42.5449 34.0142 42.5533 33.7546 42.5533 33.5201L42.5407 33.1683C42.5323 33.0762 42.5281 32.9673 42.5281 32.8417C42.5281 32.8333 42.5197 32.8208 42.5028 32.804C42.4944 32.7873 42.4902 32.7705 42.4902 32.7538C42.4902 32.67 42.5239 32.5988 42.5913 32.5402C42.6586 32.4816 42.7429 32.4397 42.844 32.4146C42.9787 32.3727 43.1514 32.3518 43.362 32.3518H46.4829C46.4914 32.3518 46.504 32.3601 46.5208 32.3769C46.5377 32.3936 46.5545 32.4062 46.5714 32.4146C46.6388 32.4732 46.723 32.5863 46.8241 32.7538C46.8494 32.804 46.8746 32.8626 46.8999 32.9296C46.9336 32.9883 46.9757 33.0846 47.0262 33.2186C47.0852 33.3526 47.1652 33.5578 47.2663 33.8342L47.4179 34.2236C47.4853 34.3492 47.5611 34.5293 47.6454 34.7638C47.6707 34.8308 47.6959 34.8978 47.7212 34.9648C47.7549 35.0318 47.7844 35.0988 47.8096 35.1658C47.8265 35.2245 47.8433 35.2705 47.8602 35.304C47.8855 35.3291 47.8981 35.3459 47.8981 35.3543C47.9571 35.4883 48.0202 35.5553 48.0876 35.5553C48.1719 35.5553 48.2392 35.4883 48.2898 35.3543C48.2982 35.3459 48.3066 35.3291 48.3151 35.304C48.3235 35.2705 48.3445 35.2203 48.3782 35.1533L48.5678 34.7387L49.0732 33.6709L49.288 33.2186C49.3132 33.1516 49.3301 33.0972 49.3385 33.0553C49.3554 33.005 49.3722 32.9715 49.3891 32.9548C49.4228 32.8794 49.5028 32.7496 49.6291 32.5653C49.6712 32.4983 49.7092 32.4481 49.7428 32.4146C49.7681 32.4062 49.785 32.3936 49.7934 32.3769C49.8018 32.3601 49.8144 32.3518 49.8313 32.3518H53.7103C53.7272 32.3518 53.7482 32.4146 53.7735 32.5402L53.8114 33.7714C53.8283 34.1231 53.8367 34.6759 53.8367 35.4296V36.1583C53.8367 36.443 53.8241 36.7613 53.7988 37.1131C53.7735 37.4648 53.7567 37.691 53.7482 37.7915L53.723 38.0427V38.4824C53.7314 38.5997 53.7356 38.7755 53.7356 39.0101C53.7356 39.2613 53.7398 39.4497 53.7482 39.5754C53.7482 39.8183 53.7567 39.9858 53.7735 40.0779V40.5804L53.7356 40.6809L53.167 40.8191H52.5984C52.5395 40.8358 52.4679 40.8442 52.3836 40.8442C52.232 40.8442 52.0214 40.8358 51.7519 40.8191L51.436 40.8065C51.377 40.7982 51.3096 40.7898 51.2338 40.7814C51.158 40.773 51.0653 40.7688 50.9558 40.7688L50.4631 40.7312C50.4462 40.7312 50.4336 40.7353 50.4252 40.7437H50.3241C50.282 40.7437 50.2567 40.6977 50.2483 40.6055C50.1977 40.438 50.1725 40.1533 50.1725 39.7513C50.1725 39.4832 50.1682 39.2739 50.1598 39.1231L50.1472 38.4447C50.1388 38.294 50.1345 38.0762 50.1345 37.7915C50.1345 37.7245 50.1051 37.691 50.0461 37.691C50.0124 37.691 49.9787 37.7328 49.945 37.8166L49.806 38.1558L49.6923 38.4698C49.6755 38.5201 49.6586 38.5704 49.6418 38.6206C49.6249 38.6709 49.6039 38.7169 49.5786 38.7588L49.5154 38.9095C49.4396 39.0771 49.3427 39.2655 49.2248 39.4749C49.0985 39.701 48.9426 39.8811 48.7573 40.0151C48.6562 40.0737 48.5678 40.103 48.4919 40.103H48.3024C48.2013 40.103 48.1171 40.0946 48.0497 40.0779H47.519C47.1821 39.5419 46.8662 38.9556 46.5714 38.3191L46.3818 37.8543C46.3313 37.7454 46.2976 37.691 46.2808 37.691C46.2218 37.691 46.1923 37.7245 46.1923 37.7915V38.3819C46.1923 38.9682 46.1839 39.3995 46.167 39.6759C46.1502 40.1114 46.1207 40.4129 46.0786 40.5804C46.0702 40.6893 46.0449 40.7437 46.0028 40.7437H45.9143L45.8512 40.7312C45.5648 40.7479 45.3373 40.7647 45.1689 40.7814C45.0678 40.7898 44.8909 40.8023 44.6382 40.8191C44.3855 40.8358 44.1496 40.8442 43.9306 40.8442Z" fill="url(#paint3_linear)"/>
<path d="M58.9117 41.0955C58.1114 41.0955 57.5049 40.9112 57.0922 40.5427C56.7468 40.2496 56.5109 39.7806 56.3846 39.1357C56.3004 38.7085 56.2582 38.0678 56.2582 37.2136C56.2582 36.5938 56.2919 35.9154 56.3593 35.1784C56.3593 35.0611 56.3677 34.8936 56.3846 34.6759C56.393 34.5 56.4014 34.2529 56.4099 33.9347C56.4183 33.608 56.4225 33.3233 56.4225 33.0804C56.4225 32.9548 56.4141 32.8668 56.3972 32.8166C56.3804 32.6993 56.3719 32.6072 56.3719 32.5402C56.3719 32.4062 56.5152 32.3392 56.8016 32.3392H57.5597C58.0988 32.3224 58.6168 32.3392 59.1138 32.3894C59.4592 32.4229 59.7245 32.4606 59.9098 32.5025C60.1373 32.5611 60.2889 32.6449 60.3647 32.7538C60.4321 32.8794 60.4658 33.0972 60.4658 33.407C60.4658 33.7839 60.4616 34.1315 60.4532 34.4497C60.4447 34.7596 60.4363 35.036 60.4279 35.2789C60.4195 35.3375 60.4153 35.4296 60.4153 35.5553C60.4153 35.7228 60.4068 36.0075 60.39 36.4095C60.3731 37.1466 60.3647 37.7621 60.3647 38.2563C60.3647 38.5662 60.3774 38.7923 60.4026 38.9347C60.4279 39.0687 60.4953 39.1357 60.6048 39.1357C60.8322 39.1357 61.0807 39.0812 61.3503 38.9724C61.5187 38.8886 61.6367 38.8258 61.7041 38.7839V33.7337C61.6788 33.541 61.6662 33.3526 61.6662 33.1683C61.6493 33.1181 61.6409 33.0469 61.6409 32.9548V32.8417C61.6409 32.691 61.6704 32.5863 61.7293 32.5276C61.7883 32.4774 61.9273 32.4523 62.1463 32.4523C62.3906 32.4523 62.7065 32.4397 63.0939 32.4146C63.2287 32.4146 63.414 32.4062 63.6499 32.3894C63.8184 32.3894 63.9405 32.3769 64.0163 32.3518C64.0669 32.3518 64.1258 32.3601 64.1932 32.3769C64.2943 32.3769 64.3785 32.3811 64.4459 32.3894L64.825 32.402C65.0103 32.4104 65.242 32.4439 65.5199 32.5025L65.8737 32.603C65.9495 32.6281 65.9959 32.6575 66.0127 32.691C66.038 32.7245 66.0506 32.7663 66.0506 32.8166C66.0506 34.0561 66.0253 35.2998 65.9748 36.5477C65.9243 38.1893 65.899 39.4288 65.899 40.2663C65.899 40.6013 65.7389 40.7688 65.4188 40.7688H64.7744C64.606 40.7856 64.2985 40.8023 63.8521 40.8191C63.5994 40.8358 63.4014 40.8442 63.2582 40.8442L62.677 40.8693C62.4495 40.8693 62.2769 40.8317 62.1589 40.7563C62.041 40.6809 61.961 40.5511 61.9189 40.3668C61.464 40.593 60.9838 40.773 60.4784 40.907C59.973 41.0327 59.4508 41.0955 58.9117 41.0955Z" fill="white"/>
<path d="M58.9117 41.0955C58.1114 41.0955 57.5049 40.9112 57.0922 40.5427C56.7468 40.2496 56.5109 39.7806 56.3846 39.1357C56.3004 38.7085 56.2582 38.0678 56.2582 37.2136C56.2582 36.5938 56.2919 35.9154 56.3593 35.1784C56.3593 35.0611 56.3677 34.8936 56.3846 34.6759C56.393 34.5 56.4014 34.2529 56.4099 33.9347C56.4183 33.608 56.4225 33.3233 56.4225 33.0804C56.4225 32.9548 56.4141 32.8668 56.3972 32.8166C56.3804 32.6993 56.3719 32.6072 56.3719 32.5402C56.3719 32.4062 56.5152 32.3392 56.8016 32.3392H57.5597C58.0988 32.3224 58.6168 32.3392 59.1138 32.3894C59.4592 32.4229 59.7245 32.4606 59.9098 32.5025C60.1373 32.5611 60.2889 32.6449 60.3647 32.7538C60.4321 32.8794 60.4658 33.0972 60.4658 33.407C60.4658 33.7839 60.4616 34.1315 60.4532 34.4497C60.4447 34.7596 60.4363 35.036 60.4279 35.2789C60.4195 35.3375 60.4153 35.4296 60.4153 35.5553C60.4153 35.7228 60.4068 36.0075 60.39 36.4095C60.3731 37.1466 60.3647 37.7621 60.3647 38.2563C60.3647 38.5662 60.3774 38.7923 60.4026 38.9347C60.4279 39.0687 60.4953 39.1357 60.6048 39.1357C60.8322 39.1357 61.0807 39.0812 61.3503 38.9724C61.5187 38.8886 61.6367 38.8258 61.7041 38.7839V33.7337C61.6788 33.541 61.6662 33.3526 61.6662 33.1683C61.6493 33.1181 61.6409 33.0469 61.6409 32.9548V32.8417C61.6409 32.691 61.6704 32.5863 61.7293 32.5276C61.7883 32.4774 61.9273 32.4523 62.1463 32.4523C62.3906 32.4523 62.7065 32.4397 63.0939 32.4146C63.2287 32.4146 63.414 32.4062 63.6499 32.3894C63.8184 32.3894 63.9405 32.3769 64.0163 32.3518C64.0669 32.3518 64.1258 32.3601 64.1932 32.3769C64.2943 32.3769 64.3785 32.3811 64.4459 32.3894L64.825 32.402C65.0103 32.4104 65.242 32.4439 65.5199 32.5025L65.8737 32.603C65.9495 32.6281 65.9959 32.6575 66.0127 32.691C66.038 32.7245 66.0506 32.7663 66.0506 32.8166C66.0506 34.0561 66.0253 35.2998 65.9748 36.5477C65.9243 38.1893 65.899 39.4288 65.899 40.2663C65.899 40.6013 65.7389 40.7688 65.4188 40.7688H64.7744C64.606 40.7856 64.2985 40.8023 63.8521 40.8191C63.5994 40.8358 63.4014 40.8442 63.2582 40.8442L62.677 40.8693C62.4495 40.8693 62.2769 40.8317 62.1589 40.7563C62.041 40.6809 61.961 40.5511 61.9189 40.3668C61.464 40.593 60.9838 40.773 60.4784 40.907C59.973 41.0327 59.4508 41.0955 58.9117 41.0955Z" fill="url(#paint4_linear)"/>
<path d="M70.1036 40.8442C70.0194 40.8442 69.9478 40.8358 69.8888 40.8191H69.3202L68.7516 40.6809L68.7137 40.5804C68.7053 40.5804 68.7011 40.5343 68.7011 40.4422C68.6842 40.191 68.6758 39.902 68.6758 39.5754C68.6758 39.3409 68.6674 39.1524 68.6505 39.0101C68.6505 38.7755 68.6463 38.5997 68.6379 38.4824V38.0427C68.5958 37.6575 68.5705 37.2345 68.5621 36.7739C68.5536 36.3132 68.5494 35.8652 68.5494 35.4296L68.5747 34.1482C68.5831 34.0059 68.5873 33.7881 68.5873 33.495C68.5873 33.2018 68.5831 32.9841 68.5747 32.8417C68.5494 32.6491 68.6042 32.5067 68.739 32.4146C68.8232 32.3727 68.9706 32.3518 69.1812 32.3518C69.4929 32.3518 69.893 32.3434 70.3816 32.3266L70.6595 32.3015C71.1649 32.268 71.4808 32.2513 71.6072 32.2513C71.7251 32.2513 71.8094 32.2554 71.8599 32.2638C71.9778 32.2722 72.0578 32.2889 72.1 32.3141C72.1421 32.3392 72.18 32.3811 72.2137 32.4397C72.2558 32.4983 72.2853 32.5444 72.3021 32.5779C72.4032 32.7119 72.5043 32.8543 72.6054 33.005C72.757 33.2312 72.8791 33.407 72.9718 33.5327L73.8057 34.8015L74.2101 35.4045C74.2101 35.1868 74.2185 35.0151 74.2353 34.8894V33.7211L74.2732 32.8291C74.2817 32.7621 74.2901 32.7161 74.2985 32.691C74.3069 32.6658 74.3196 32.6491 74.3364 32.6407C74.3533 32.624 74.3659 32.6114 74.3743 32.603C74.4754 32.5193 74.5765 32.4564 74.6776 32.4146C74.7618 32.3978 74.8292 32.3894 74.8797 32.3894H75.7516C75.819 32.3978 75.9369 32.402 76.1054 32.402C76.2907 32.402 76.4381 32.4062 76.5476 32.4146H77.4826C77.7016 32.4146 77.849 32.4481 77.9249 32.5151C78.0175 32.5821 78.0638 32.7286 78.0638 32.9548L78.0512 33.0804L78.0386 33.2814C78.0301 33.3317 78.0259 33.3987 78.0259 33.4824V33.7337L78.0512 33.8593V34.2613C78.0428 34.4037 78.0386 34.6466 78.0386 34.9899V35.9196C78.0301 36.1374 78.0259 36.443 78.0259 36.8367V39.9774L77.9754 40.4548C77.9417 40.6474 77.8743 40.7647 77.7732 40.8065L77.5584 40.8191L77.3436 40.8065H75.0693C74.9008 40.8233 74.7365 40.8023 74.5765 40.7437C74.5007 40.7102 74.4164 40.6558 74.3238 40.5804L73.035 38.7839C73.035 38.7755 72.9423 38.6206 72.757 38.3191C72.6896 38.2186 72.6264 38.1307 72.5675 38.0553C72.5506 38.0218 72.5296 37.9967 72.5043 37.9799C72.4875 37.9548 72.4748 37.9422 72.4664 37.9422C72.3906 37.9422 72.3527 37.9757 72.3527 38.0427V38.3191C72.3443 38.4028 72.34 38.541 72.34 38.7337V39.701C72.3232 39.8015 72.3148 39.9271 72.3148 40.0779V40.5176L72.3274 40.5804C72.3274 40.6474 72.2937 40.6893 72.2263 40.706C72.1842 40.7395 72.1168 40.7479 72.0242 40.7312C71.7378 40.7479 71.5103 40.7647 71.3418 40.7814C71.2408 40.7898 71.0639 40.8023 70.8112 40.8191C70.5585 40.8358 70.3226 40.8442 70.1036 40.8442Z" fill="white"/>
<path d="M70.1036 40.8442C70.0194 40.8442 69.9478 40.8358 69.8888 40.8191H69.3202L68.7516 40.6809L68.7137 40.5804C68.7053 40.5804 68.7011 40.5343 68.7011 40.4422C68.6842 40.191 68.6758 39.902 68.6758 39.5754C68.6758 39.3409 68.6674 39.1524 68.6505 39.0101C68.6505 38.7755 68.6463 38.5997 68.6379 38.4824V38.0427C68.5958 37.6575 68.5705 37.2345 68.5621 36.7739C68.5536 36.3132 68.5494 35.8652 68.5494 35.4296L68.5747 34.1482C68.5831 34.0059 68.5873 33.7881 68.5873 33.495C68.5873 33.2018 68.5831 32.9841 68.5747 32.8417C68.5494 32.6491 68.6042 32.5067 68.739 32.4146C68.8232 32.3727 68.9706 32.3518 69.1812 32.3518C69.4929 32.3518 69.893 32.3434 70.3816 32.3266L70.6595 32.3015C71.1649 32.268 71.4808 32.2513 71.6072 32.2513C71.7251 32.2513 71.8094 32.2554 71.8599 32.2638C71.9778 32.2722 72.0578 32.2889 72.1 32.3141C72.1421 32.3392 72.18 32.3811 72.2137 32.4397C72.2558 32.4983 72.2853 32.5444 72.3021 32.5779C72.4032 32.7119 72.5043 32.8543 72.6054 33.005C72.757 33.2312 72.8791 33.407 72.9718 33.5327L73.8057 34.8015L74.2101 35.4045C74.2101 35.1868 74.2185 35.0151 74.2353 34.8894V33.7211L74.2732 32.8291C74.2817 32.7621 74.2901 32.7161 74.2985 32.691C74.3069 32.6658 74.3196 32.6491 74.3364 32.6407C74.3533 32.624 74.3659 32.6114 74.3743 32.603C74.4754 32.5193 74.5765 32.4564 74.6776 32.4146C74.7618 32.3978 74.8292 32.3894 74.8797 32.3894H75.7516C75.819 32.3978 75.9369 32.402 76.1054 32.402C76.2907 32.402 76.4381 32.4062 76.5476 32.4146H77.4826C77.7016 32.4146 77.849 32.4481 77.9249 32.5151C78.0175 32.5821 78.0638 32.7286 78.0638 32.9548L78.0512 33.0804L78.0386 33.2814C78.0301 33.3317 78.0259 33.3987 78.0259 33.4824V33.7337L78.0512 33.8593V34.2613C78.0428 34.4037 78.0386 34.6466 78.0386 34.9899V35.9196C78.0301 36.1374 78.0259 36.443 78.0259 36.8367V39.9774L77.9754 40.4548C77.9417 40.6474 77.8743 40.7647 77.7732 40.8065L77.5584 40.8191L77.3436 40.8065H75.0693C74.9008 40.8233 74.7365 40.8023 74.5765 40.7437C74.5007 40.7102 74.4164 40.6558 74.3238 40.5804L73.035 38.7839C73.035 38.7755 72.9423 38.6206 72.757 38.3191C72.6896 38.2186 72.6264 38.1307 72.5675 38.0553C72.5506 38.0218 72.5296 37.9967 72.5043 37.9799C72.4875 37.9548 72.4748 37.9422 72.4664 37.9422C72.3906 37.9422 72.3527 37.9757 72.3527 38.0427V38.3191C72.3443 38.4028 72.34 38.541 72.34 38.7337V39.701C72.3232 39.8015 72.3148 39.9271 72.3148 40.0779V40.5176L72.3274 40.5804C72.3274 40.6474 72.2937 40.6893 72.2263 40.706C72.1842 40.7395 72.1168 40.7479 72.0242 40.7312C71.7378 40.7479 71.5103 40.7647 71.3418 40.7814C71.2408 40.7898 71.0639 40.8023 70.8112 40.8191C70.5585 40.8358 70.3226 40.8442 70.1036 40.8442Z" fill="url(#paint5_linear)"/>
<path d="M80.9074 40.8191C80.8484 40.8191 80.7937 40.7982 80.7431 40.7563C80.6926 40.706 80.6547 40.6432 80.6294 40.5678C80.5957 40.4171 80.5704 40.2496 80.5536 40.0653C80.5452 40.0067 80.541 39.9271 80.541 39.8266V39.6633L80.5536 38.1055C80.5536 37.5779 80.5662 37.0586 80.5915 36.5477V32.5779C80.5915 32.4941 80.6462 32.4523 80.7558 32.4523C81.337 32.4523 81.7708 32.4481 82.0572 32.4397H83.3207C83.346 32.4397 83.3671 32.4355 83.3839 32.4271C83.4008 32.4188 83.4218 32.4146 83.4471 32.4146C83.5566 32.3978 83.7082 32.3936 83.902 32.402C84.0452 32.402 84.1968 32.4146 84.3568 32.4397C84.4074 32.4732 84.4453 32.4816 84.4706 32.4648C84.4874 32.4648 84.5211 32.4564 84.5716 32.4397C84.698 32.4397 84.7949 32.4481 84.8622 32.4648C84.9381 32.4816 84.997 32.5193 85.0391 32.5779C85.0813 32.6533 85.1149 32.7454 85.1402 32.8543C85.1486 32.938 85.1528 33.1139 85.1528 33.3819V36.0201C85.1444 36.0871 85.1402 36.2379 85.1402 36.4724C85.1402 36.7236 85.1318 36.9204 85.1149 37.0628L85.1023 37.6281C85.0939 37.7538 85.0897 37.9129 85.0897 38.1055L85.077 38.3065V39.1106C85.077 39.6131 85.056 40.0402 85.0139 40.392C85.0139 40.5092 84.9844 40.6265 84.9254 40.7437C84.7738 40.7437 84.5548 40.7521 84.2684 40.7688C84.1336 40.7688 84.0452 40.7772 84.003 40.794H83.8388C83.7798 40.794 83.7503 40.7856 83.7503 40.7688C83.6829 40.7521 83.645 40.7437 83.6366 40.7437L83.5355 40.794H82.3731C82.3647 40.8023 82.2973 40.8065 82.1709 40.8065H81.2233L80.9074 40.8191Z" fill="white"/>
<path d="M80.9074 40.8191C80.8484 40.8191 80.7937 40.7982 80.7431 40.7563C80.6926 40.706 80.6547 40.6432 80.6294 40.5678C80.5957 40.4171 80.5704 40.2496 80.5536 40.0653C80.5452 40.0067 80.541 39.9271 80.541 39.8266V39.6633L80.5536 38.1055C80.5536 37.5779 80.5662 37.0586 80.5915 36.5477V32.5779C80.5915 32.4941 80.6462 32.4523 80.7558 32.4523C81.337 32.4523 81.7708 32.4481 82.0572 32.4397H83.3207C83.346 32.4397 83.3671 32.4355 83.3839 32.4271C83.4008 32.4188 83.4218 32.4146 83.4471 32.4146C83.5566 32.3978 83.7082 32.3936 83.902 32.402C84.0452 32.402 84.1968 32.4146 84.3568 32.4397C84.4074 32.4732 84.4453 32.4816 84.4706 32.4648C84.4874 32.4648 84.5211 32.4564 84.5716 32.4397C84.698 32.4397 84.7949 32.4481 84.8622 32.4648C84.9381 32.4816 84.997 32.5193 85.0391 32.5779C85.0813 32.6533 85.1149 32.7454 85.1402 32.8543C85.1486 32.938 85.1528 33.1139 85.1528 33.3819V36.0201C85.1444 36.0871 85.1402 36.2379 85.1402 36.4724C85.1402 36.7236 85.1318 36.9204 85.1149 37.0628L85.1023 37.6281C85.0939 37.7538 85.0897 37.9129 85.0897 38.1055L85.077 38.3065V39.1106C85.077 39.6131 85.056 40.0402 85.0139 40.392C85.0139 40.5092 84.9844 40.6265 84.9254 40.7437C84.7738 40.7437 84.5548 40.7521 84.2684 40.7688C84.1336 40.7688 84.0452 40.7772 84.003 40.794H83.8388C83.7798 40.794 83.7503 40.7856 83.7503 40.7688C83.6829 40.7521 83.645 40.7437 83.6366 40.7437L83.5355 40.794H82.3731C82.3647 40.8023 82.2973 40.8065 82.1709 40.8065H81.2233L80.9074 40.8191Z" fill="url(#paint6_linear)"/>
<path d="M89.6696 40.8191C89.5517 40.8191 89.4632 40.7395 89.4043 40.5804C89.2779 40.304 89.2147 39.8015 89.2147 39.0729C89.2147 38.3693 89.2274 37.5611 89.2526 36.6482C89.261 36.3551 89.2653 35.9028 89.2653 35.2915L89.2274 35.2412H87.8248C87.7153 35.2412 87.6269 35.1826 87.5595 35.0653C87.5005 34.9397 87.4542 34.768 87.4205 34.5503C87.3784 34.299 87.3573 33.9389 87.3573 33.4698V33.294C87.3573 33.2102 87.3615 33.1432 87.3699 33.093V32.7915C87.3699 32.7412 87.3952 32.6993 87.4458 32.6658C87.4963 32.624 87.5553 32.5946 87.6227 32.5779C87.7069 32.5528 87.8333 32.5402 88.0017 32.5402H88.962C89.1726 32.5402 89.3326 32.5444 89.4422 32.5528L89.9097 32.5653H94.4584C94.7869 32.5653 95.0017 32.5695 95.1028 32.5779C95.1449 32.5863 95.2039 32.5946 95.2797 32.603C95.3555 32.6114 95.4102 32.6281 95.4439 32.6533C95.5029 32.6784 95.5366 32.7119 95.545 32.7538C95.5619 32.7873 95.5703 32.8417 95.5703 32.9171V34.9899C95.5703 35.0821 95.5324 35.1449 95.4566 35.1784C95.406 35.1951 95.3386 35.2035 95.2544 35.2035H94.4331C94.2394 35.2035 94.092 35.1951 93.9909 35.1784H93.6118C93.536 35.1784 93.4939 35.1951 93.4855 35.2286C93.4855 35.237 93.4812 35.2496 93.4728 35.2663C93.4644 35.2747 93.4602 35.2873 93.4602 35.304V35.9196C93.4602 36.0452 93.456 36.1415 93.4476 36.2085C93.4476 36.4514 93.4307 36.9832 93.397 37.804L93.3717 38.1809C93.3549 38.5327 93.3381 38.7881 93.3212 38.9472V40.1407C93.3212 40.4255 93.2622 40.6055 93.1443 40.6809C93.0348 40.7228 92.959 40.7479 92.9169 40.7563L92.601 40.7688C92.2725 40.7688 92.0408 40.7772 91.9061 40.794L90.5793 40.8065C90.4109 40.8149 90.1076 40.8191 89.6696 40.8191Z" fill="white"/>
<path d="M89.6696 40.8191C89.5517 40.8191 89.4632 40.7395 89.4043 40.5804C89.2779 40.304 89.2147 39.8015 89.2147 39.0729C89.2147 38.3693 89.2274 37.5611 89.2526 36.6482C89.261 36.3551 89.2653 35.9028 89.2653 35.2915L89.2274 35.2412H87.8248C87.7153 35.2412 87.6269 35.1826 87.5595 35.0653C87.5005 34.9397 87.4542 34.768 87.4205 34.5503C87.3784 34.299 87.3573 33.9389 87.3573 33.4698V33.294C87.3573 33.2102 87.3615 33.1432 87.3699 33.093V32.7915C87.3699 32.7412 87.3952 32.6993 87.4458 32.6658C87.4963 32.624 87.5553 32.5946 87.6227 32.5779C87.7069 32.5528 87.8333 32.5402 88.0017 32.5402H88.962C89.1726 32.5402 89.3326 32.5444 89.4422 32.5528L89.9097 32.5653H94.4584C94.7869 32.5653 95.0017 32.5695 95.1028 32.5779C95.1449 32.5863 95.2039 32.5946 95.2797 32.603C95.3555 32.6114 95.4102 32.6281 95.4439 32.6533C95.5029 32.6784 95.5366 32.7119 95.545 32.7538C95.5619 32.7873 95.5703 32.8417 95.5703 32.9171V34.9899C95.5703 35.0821 95.5324 35.1449 95.4566 35.1784C95.406 35.1951 95.3386 35.2035 95.2544 35.2035H94.4331C94.2394 35.2035 94.092 35.1951 93.9909 35.1784H93.6118C93.536 35.1784 93.4939 35.1951 93.4855 35.2286C93.4855 35.237 93.4812 35.2496 93.4728 35.2663C93.4644 35.2747 93.4602 35.2873 93.4602 35.304V35.9196C93.4602 36.0452 93.456 36.1415 93.4476 36.2085C93.4476 36.4514 93.4307 36.9832 93.397 37.804L93.3717 38.1809C93.3549 38.5327 93.3381 38.7881 93.3212 38.9472V40.1407C93.3212 40.4255 93.2622 40.6055 93.1443 40.6809C93.0348 40.7228 92.959 40.7479 92.9169 40.7563L92.601 40.7688C92.2725 40.7688 92.0408 40.7772 91.9061 40.794L90.5793 40.8065C90.4109 40.8149 90.1076 40.8191 89.6696 40.8191Z" fill="url(#paint7_linear)"/>
<path d="M102.806 41.9246C102.806 41.9246 102.798 41.9246 102.781 41.9246C102.772 41.9246 102.764 41.9288 102.755 41.9372L102.718 41.9497C102.692 41.9497 102.68 41.9414 102.68 41.9246C102.646 41.9079 102.625 41.8827 102.616 41.8492C102.322 41.799 102.132 41.7571 102.048 41.7236L101.606 41.598H101.542C101.5 41.598 101.467 41.5896 101.441 41.5729C101.366 41.5729 101.302 41.5645 101.252 41.5477C101.184 41.5394 101.075 41.5101 100.923 41.4598C100.772 41.4095 100.662 41.3719 100.595 41.3467C100.46 41.3049 100.266 41.2337 100.014 41.1332C99.8957 41.0829 99.8072 41.0494 99.7482 41.0327L99.4576 40.8568C99.3902 40.8065 99.3566 40.7563 99.3566 40.706C99.3566 40.5469 99.3944 40.3794 99.4703 40.2035C99.4955 40.1449 99.5292 40.0737 99.5714 39.99C99.6219 39.9062 99.6682 39.8099 99.7103 39.701C99.7272 39.6508 99.7735 39.5754 99.8493 39.4749C100.051 39.1399 100.161 38.9556 100.178 38.9221C100.212 38.83 100.228 38.7462 100.228 38.6709C100.228 38.5452 100.161 38.4154 100.026 38.2814C99.8999 38.1558 99.8367 38.0343 99.8367 37.9171C99.7946 37.9171 99.7735 37.9213 99.7735 37.9296H99.7356C99.7187 37.9129 99.7103 37.8961 99.7103 37.8794C99.4408 37.5444 99.167 37.1382 98.889 36.6608C98.5352 36.108 98.2488 35.6055 98.0298 35.1533C97.9624 35.0528 97.8824 34.8727 97.7898 34.6131C97.6803 34.3869 97.5876 34.1566 97.5118 33.9221C97.4191 33.6625 97.3728 33.495 97.3728 33.4196C97.3728 33.3358 97.4655 33.227 97.6508 33.093C97.7266 33.0427 97.815 32.9925 97.9161 32.9422C98.0172 32.892 98.093 32.8543 98.1436 32.8291C98.1857 32.8208 98.3626 32.7747 98.6742 32.691L98.8511 32.6281C98.8848 32.603 98.9227 32.5905 98.9648 32.5905C99.0154 32.5905 99.0954 32.5737 99.2049 32.5402C99.4492 32.4899 99.5924 32.4564 99.6345 32.4397L100.089 32.3392C100.342 32.2554 100.49 32.2094 100.532 32.201L100.557 32.1884H100.62C100.797 32.1884 100.915 32.2303 100.974 32.3141C101.024 32.3643 101.109 32.4816 101.227 32.6658C101.243 32.7161 101.273 32.7747 101.315 32.8417C101.366 32.9087 101.399 32.9506 101.416 32.9673L101.517 33.1055L101.606 33.206C101.639 33.2479 101.673 33.2982 101.707 33.3568C101.74 33.4154 101.778 33.4782 101.82 33.5452C102.039 33.9305 102.208 34.2027 102.326 34.3618C102.402 34.4707 102.465 34.5251 102.515 34.5251C102.541 34.5251 102.583 34.4791 102.642 34.3869C102.718 34.2697 102.857 34.0017 103.059 33.5829C103.168 33.3149 103.299 33.0092 103.45 32.6658C103.526 32.5151 103.568 32.4229 103.577 32.3894C103.61 32.2387 103.648 32.1424 103.69 32.1005C103.733 32.0335 103.808 32 103.918 32C104.187 32 104.541 32.0544 104.979 32.1633C105.409 32.2889 105.822 32.4523 106.218 32.6533C106.622 32.871 106.896 33.072 107.039 33.2563C107.039 33.4824 106.984 33.6918 106.875 33.8844L105.712 36.4347L104.575 38.9975L104.524 39.0101C104.516 39.0101 104.503 39.0184 104.486 39.0352C103.931 40.1156 103.421 41.0871 102.958 41.9497C102.941 41.9832 102.89 42 102.806 42V41.9246Z" fill="white"/>
<path d="M102.806 41.9246C102.806 41.9246 102.798 41.9246 102.781 41.9246C102.772 41.9246 102.764 41.9288 102.755 41.9372L102.718 41.9497C102.692 41.9497 102.68 41.9414 102.68 41.9246C102.646 41.9079 102.625 41.8827 102.616 41.8492C102.322 41.799 102.132 41.7571 102.048 41.7236L101.606 41.598H101.542C101.5 41.598 101.467 41.5896 101.441 41.5729C101.366 41.5729 101.302 41.5645 101.252 41.5477C101.184 41.5394 101.075 41.5101 100.923 41.4598C100.772 41.4095 100.662 41.3719 100.595 41.3467C100.46 41.3049 100.266 41.2337 100.014 41.1332C99.8957 41.0829 99.8072 41.0494 99.7482 41.0327L99.4576 40.8568C99.3902 40.8065 99.3566 40.7563 99.3566 40.706C99.3566 40.5469 99.3944 40.3794 99.4703 40.2035C99.4955 40.1449 99.5292 40.0737 99.5714 39.99C99.6219 39.9062 99.6682 39.8099 99.7103 39.701C99.7272 39.6508 99.7735 39.5754 99.8493 39.4749C100.051 39.1399 100.161 38.9556 100.178 38.9221C100.212 38.83 100.228 38.7462 100.228 38.6709C100.228 38.5452 100.161 38.4154 100.026 38.2814C99.8999 38.1558 99.8367 38.0343 99.8367 37.9171C99.7946 37.9171 99.7735 37.9213 99.7735 37.9296H99.7356C99.7187 37.9129 99.7103 37.8961 99.7103 37.8794C99.4408 37.5444 99.167 37.1382 98.889 36.6608C98.5352 36.108 98.2488 35.6055 98.0298 35.1533C97.9624 35.0528 97.8824 34.8727 97.7898 34.6131C97.6803 34.3869 97.5876 34.1566 97.5118 33.9221C97.4191 33.6625 97.3728 33.495 97.3728 33.4196C97.3728 33.3358 97.4655 33.227 97.6508 33.093C97.7266 33.0427 97.815 32.9925 97.9161 32.9422C98.0172 32.892 98.093 32.8543 98.1436 32.8291C98.1857 32.8208 98.3626 32.7747 98.6742 32.691L98.8511 32.6281C98.8848 32.603 98.9227 32.5905 98.9648 32.5905C99.0154 32.5905 99.0954 32.5737 99.2049 32.5402C99.4492 32.4899 99.5924 32.4564 99.6345 32.4397L100.089 32.3392C100.342 32.2554 100.49 32.2094 100.532 32.201L100.557 32.1884H100.62C100.797 32.1884 100.915 32.2303 100.974 32.3141C101.024 32.3643 101.109 32.4816 101.227 32.6658C101.243 32.7161 101.273 32.7747 101.315 32.8417C101.366 32.9087 101.399 32.9506 101.416 32.9673L101.517 33.1055L101.606 33.206C101.639 33.2479 101.673 33.2982 101.707 33.3568C101.74 33.4154 101.778 33.4782 101.82 33.5452C102.039 33.9305 102.208 34.2027 102.326 34.3618C102.402 34.4707 102.465 34.5251 102.515 34.5251C102.541 34.5251 102.583 34.4791 102.642 34.3869C102.718 34.2697 102.857 34.0017 103.059 33.5829C103.168 33.3149 103.299 33.0092 103.45 32.6658C103.526 32.5151 103.568 32.4229 103.577 32.3894C103.61 32.2387 103.648 32.1424 103.69 32.1005C103.733 32.0335 103.808 32 103.918 32C104.187 32 104.541 32.0544 104.979 32.1633C105.409 32.2889 105.822 32.4523 106.218 32.6533C106.622 32.871 106.896 33.072 107.039 33.2563C107.039 33.4824 106.984 33.6918 106.875 33.8844L105.712 36.4347L104.575 38.9975L104.524 39.0101C104.516 39.0101 104.503 39.0184 104.486 39.0352C103.931 40.1156 103.421 41.0871 102.958 41.9497C102.941 41.9832 102.89 42 102.806 42V41.9246Z" fill="url(#paint8_linear)"/>
<path d="M116.896 41.108C116.298 41.108 115.696 41.041 115.089 40.907C114.491 40.7647 113.999 40.572 113.611 40.3291C113.51 40.0276 113.434 39.7261 113.384 39.4246C113.333 39.1231 113.27 38.6918 113.194 38.1307V38.093C113.211 37.9925 113.266 37.9171 113.358 37.8668C113.678 38.0595 113.986 38.206 114.281 38.3065C114.576 38.3987 114.9 38.4447 115.254 38.4447H115.557L115.759 38.4573C115.953 38.4573 116.151 38.428 116.353 38.3693C116.462 38.3275 116.538 38.2479 116.58 38.1307L115.911 37.804C115.397 37.5611 114.934 37.3015 114.521 37.0251C114.091 36.7152 113.784 36.3216 113.598 35.8442C113.506 35.5846 113.459 35.2998 113.459 34.9899C113.459 34.2362 113.691 33.629 114.154 33.1683C114.559 32.758 115.106 32.4648 115.797 32.2889C116.395 32.1466 117.052 32.0754 117.768 32.0754C118.189 32.0754 118.77 32.1214 119.512 32.2136C119.588 32.2303 119.693 32.2471 119.828 32.2638L120.207 32.3392C120.493 32.3894 120.704 32.4146 120.838 32.4146C120.847 32.4146 120.86 32.4271 120.876 32.4523C120.902 32.4774 120.923 32.4983 120.94 32.5151C120.973 32.5737 121.007 32.603 121.041 32.603H121.066L121.091 32.8668C121.091 32.9925 121.104 33.1265 121.129 33.2688C121.154 33.4782 121.167 33.7044 121.167 33.9472C121.167 34.1566 121.154 34.3074 121.129 34.3995C121.087 34.567 121.011 34.6884 120.902 34.7638L119.727 34.6131H119.423C119.137 34.6131 118.808 34.6424 118.438 34.701L118.021 34.7889C117.92 34.8057 117.869 34.8224 117.869 34.8392C117.869 35.0402 118 35.2286 118.261 35.4045C118.387 35.4715 118.514 35.5302 118.64 35.5804C118.766 35.6223 118.846 35.6516 118.88 35.6683C119.503 35.8442 120.042 36.1499 120.497 36.5854C120.708 36.7864 120.872 37 120.99 37.2261C121.108 37.4523 121.167 37.67 121.167 37.8794C121.167 38.005 121.15 38.139 121.116 38.2814C121.057 38.9095 120.817 39.4539 120.396 39.9146C119.983 40.325 119.465 40.6265 118.842 40.8191C118.303 41.0117 117.654 41.108 116.896 41.108Z" fill="white"/>
<path d="M116.896 41.108C116.298 41.108 115.696 41.041 115.089 40.907C114.491 40.7647 113.999 40.572 113.611 40.3291C113.51 40.0276 113.434 39.7261 113.384 39.4246C113.333 39.1231 113.27 38.6918 113.194 38.1307V38.093C113.211 37.9925 113.266 37.9171 113.358 37.8668C113.678 38.0595 113.986 38.206 114.281 38.3065C114.576 38.3987 114.9 38.4447 115.254 38.4447H115.557L115.759 38.4573C115.953 38.4573 116.151 38.428 116.353 38.3693C116.462 38.3275 116.538 38.2479 116.58 38.1307L115.911 37.804C115.397 37.5611 114.934 37.3015 114.521 37.0251C114.091 36.7152 113.784 36.3216 113.598 35.8442C113.506 35.5846 113.459 35.2998 113.459 34.9899C113.459 34.2362 113.691 33.629 114.154 33.1683C114.559 32.758 115.106 32.4648 115.797 32.2889C116.395 32.1466 117.052 32.0754 117.768 32.0754C118.189 32.0754 118.77 32.1214 119.512 32.2136C119.588 32.2303 119.693 32.2471 119.828 32.2638L120.207 32.3392C120.493 32.3894 120.704 32.4146 120.838 32.4146C120.847 32.4146 120.86 32.4271 120.876 32.4523C120.902 32.4774 120.923 32.4983 120.94 32.5151C120.973 32.5737 121.007 32.603 121.041 32.603H121.066L121.091 32.8668C121.091 32.9925 121.104 33.1265 121.129 33.2688C121.154 33.4782 121.167 33.7044 121.167 33.9472C121.167 34.1566 121.154 34.3074 121.129 34.3995C121.087 34.567 121.011 34.6884 120.902 34.7638L119.727 34.6131H119.423C119.137 34.6131 118.808 34.6424 118.438 34.701L118.021 34.7889C117.92 34.8057 117.869 34.8224 117.869 34.8392C117.869 35.0402 118 35.2286 118.261 35.4045C118.387 35.4715 118.514 35.5302 118.64 35.5804C118.766 35.6223 118.846 35.6516 118.88 35.6683C119.503 35.8442 120.042 36.1499 120.497 36.5854C120.708 36.7864 120.872 37 120.99 37.2261C121.108 37.4523 121.167 37.67 121.167 37.8794C121.167 38.005 121.15 38.139 121.116 38.2814C121.057 38.9095 120.817 39.4539 120.396 39.9146C119.983 40.325 119.465 40.6265 118.842 40.8191C118.303 41.0117 117.654 41.108 116.896 41.108Z" fill="url(#paint9_linear)"/>
<path d="M124.966 40.8442C124.882 40.8442 124.815 40.8358 124.764 40.8191H124.196L123.627 40.6809L123.577 40.5804C123.568 40.5804 123.564 40.5343 123.564 40.4422C123.564 40.325 123.56 40.2286 123.551 40.1533L123.539 39.5754C123.53 39.4497 123.526 39.2613 123.526 39.0101L123.501 38.0427C123.501 37.8333 123.509 37.5444 123.526 37.1759L123.539 36.7487C123.556 36.4807 123.564 36.041 123.564 35.4296V35.1784C123.547 35.1533 123.539 35.1072 123.539 35.0402L123.526 34.9523C123.526 34.7429 123.539 34.5251 123.564 34.299C123.581 34.0142 123.589 33.7546 123.589 33.5201L123.577 33.1683C123.568 33.0762 123.564 32.9673 123.564 32.8417C123.564 32.8333 123.556 32.8208 123.539 32.804C123.53 32.7873 123.526 32.7705 123.526 32.7538C123.526 32.67 123.56 32.5988 123.627 32.5402C123.695 32.4816 123.779 32.4397 123.88 32.4146C124.015 32.3727 124.187 32.3518 124.398 32.3518H127.519C127.527 32.3518 127.54 32.3601 127.557 32.3769C127.574 32.3936 127.59 32.4062 127.607 32.4146C127.675 32.4732 127.759 32.5863 127.86 32.7538C127.885 32.804 127.911 32.8626 127.936 32.9296C127.969 32.9883 128.012 33.0846 128.062 33.2186C128.121 33.3526 128.201 33.5578 128.302 33.8342L128.454 34.2236C128.521 34.3492 128.597 34.5293 128.681 34.7638C128.707 34.8308 128.732 34.8978 128.757 34.9648C128.791 35.0318 128.82 35.0988 128.846 35.1658C128.862 35.2245 128.879 35.2705 128.896 35.304C128.921 35.3291 128.934 35.3459 128.934 35.3543C128.993 35.4883 129.056 35.5553 129.124 35.5553C129.208 35.5553 129.275 35.4883 129.326 35.3543C129.334 35.3459 129.343 35.3291 129.351 35.304C129.359 35.2705 129.38 35.2203 129.414 35.1533L129.604 34.7387L130.109 33.6709L130.324 33.2186C130.349 33.1516 130.366 33.0972 130.374 33.0553C130.391 33.005 130.408 32.9715 130.425 32.9548C130.459 32.8794 130.539 32.7496 130.665 32.5653C130.707 32.4983 130.745 32.4481 130.779 32.4146C130.804 32.4062 130.821 32.3936 130.829 32.3769C130.838 32.3601 130.85 32.3518 130.867 32.3518H134.746C134.763 32.3518 134.784 32.4146 134.809 32.5402L134.847 33.7714C134.864 34.1231 134.873 34.6759 134.873 35.4296V36.1583C134.873 36.443 134.86 36.7613 134.835 37.1131C134.809 37.4648 134.793 37.691 134.784 37.7915L134.759 38.0427V38.4824C134.767 38.5997 134.771 38.7755 134.771 39.0101C134.771 39.2613 134.776 39.4497 134.784 39.5754C134.784 39.8183 134.793 39.9858 134.809 40.0779V40.5804L134.771 40.6809L134.203 40.8191H133.634C133.575 40.8358 133.504 40.8442 133.42 40.8442C133.268 40.8442 133.057 40.8358 132.788 40.8191L132.472 40.8065C132.413 40.7982 132.346 40.7898 132.27 40.7814C132.194 40.773 132.101 40.7688 131.992 40.7688L131.499 40.7312C131.482 40.7312 131.469 40.7353 131.461 40.7437H131.36C131.318 40.7437 131.293 40.6977 131.284 40.6055C131.234 40.438 131.208 40.1533 131.208 39.7513C131.208 39.4832 131.204 39.2739 131.196 39.1231L131.183 38.4447C131.175 38.294 131.17 38.0762 131.17 37.7915C131.17 37.7245 131.141 37.691 131.082 37.691C131.048 37.691 131.015 37.7328 130.981 37.8166L130.842 38.1558L130.728 38.4698C130.711 38.5201 130.695 38.5704 130.678 38.6206C130.661 38.6709 130.64 38.7169 130.614 38.7588L130.551 38.9095C130.475 39.0771 130.379 39.2655 130.261 39.4749C130.134 39.701 129.978 39.8811 129.793 40.0151C129.692 40.0737 129.604 40.103 129.528 40.103H129.338C129.237 40.103 129.153 40.0946 129.086 40.0779H128.555C128.218 39.5419 127.902 38.9556 127.607 38.3191L127.418 37.8543C127.367 37.7454 127.333 37.691 127.317 37.691C127.258 37.691 127.228 37.7245 127.228 37.7915V38.3819C127.228 38.9682 127.22 39.3995 127.203 39.6759C127.186 40.1114 127.157 40.4129 127.114 40.5804C127.106 40.6893 127.081 40.7437 127.039 40.7437H126.95L126.887 40.7312C126.601 40.7479 126.373 40.7647 126.205 40.7814C126.104 40.7898 125.927 40.8023 125.674 40.8191C125.421 40.8358 125.185 40.8442 124.966 40.8442Z" fill="white"/>
<path d="M124.966 40.8442C124.882 40.8442 124.815 40.8358 124.764 40.8191H124.196L123.627 40.6809L123.577 40.5804C123.568 40.5804 123.564 40.5343 123.564 40.4422C123.564 40.325 123.56 40.2286 123.551 40.1533L123.539 39.5754C123.53 39.4497 123.526 39.2613 123.526 39.0101L123.501 38.0427C123.501 37.8333 123.509 37.5444 123.526 37.1759L123.539 36.7487C123.556 36.4807 123.564 36.041 123.564 35.4296V35.1784C123.547 35.1533 123.539 35.1072 123.539 35.0402L123.526 34.9523C123.526 34.7429 123.539 34.5251 123.564 34.299C123.581 34.0142 123.589 33.7546 123.589 33.5201L123.577 33.1683C123.568 33.0762 123.564 32.9673 123.564 32.8417C123.564 32.8333 123.556 32.8208 123.539 32.804C123.53 32.7873 123.526 32.7705 123.526 32.7538C123.526 32.67 123.56 32.5988 123.627 32.5402C123.695 32.4816 123.779 32.4397 123.88 32.4146C124.015 32.3727 124.187 32.3518 124.398 32.3518H127.519C127.527 32.3518 127.54 32.3601 127.557 32.3769C127.574 32.3936 127.59 32.4062 127.607 32.4146C127.675 32.4732 127.759 32.5863 127.86 32.7538C127.885 32.804 127.911 32.8626 127.936 32.9296C127.969 32.9883 128.012 33.0846 128.062 33.2186C128.121 33.3526 128.201 33.5578 128.302 33.8342L128.454 34.2236C128.521 34.3492 128.597 34.5293 128.681 34.7638C128.707 34.8308 128.732 34.8978 128.757 34.9648C128.791 35.0318 128.82 35.0988 128.846 35.1658C128.862 35.2245 128.879 35.2705 128.896 35.304C128.921 35.3291 128.934 35.3459 128.934 35.3543C128.993 35.4883 129.056 35.5553 129.124 35.5553C129.208 35.5553 129.275 35.4883 129.326 35.3543C129.334 35.3459 129.343 35.3291 129.351 35.304C129.359 35.2705 129.38 35.2203 129.414 35.1533L129.604 34.7387L130.109 33.6709L130.324 33.2186C130.349 33.1516 130.366 33.0972 130.374 33.0553C130.391 33.005 130.408 32.9715 130.425 32.9548C130.459 32.8794 130.539 32.7496 130.665 32.5653C130.707 32.4983 130.745 32.4481 130.779 32.4146C130.804 32.4062 130.821 32.3936 130.829 32.3769C130.838 32.3601 130.85 32.3518 130.867 32.3518H134.746C134.763 32.3518 134.784 32.4146 134.809 32.5402L134.847 33.7714C134.864 34.1231 134.873 34.6759 134.873 35.4296V36.1583C134.873 36.443 134.86 36.7613 134.835 37.1131C134.809 37.4648 134.793 37.691 134.784 37.7915L134.759 38.0427V38.4824C134.767 38.5997 134.771 38.7755 134.771 39.0101C134.771 39.2613 134.776 39.4497 134.784 39.5754C134.784 39.8183 134.793 39.9858 134.809 40.0779V40.5804L134.771 40.6809L134.203 40.8191H133.634C133.575 40.8358 133.504 40.8442 133.42 40.8442C133.268 40.8442 133.057 40.8358 132.788 40.8191L132.472 40.8065C132.413 40.7982 132.346 40.7898 132.27 40.7814C132.194 40.773 132.101 40.7688 131.992 40.7688L131.499 40.7312C131.482 40.7312 131.469 40.7353 131.461 40.7437H131.36C131.318 40.7437 131.293 40.6977 131.284 40.6055C131.234 40.438 131.208 40.1533 131.208 39.7513C131.208 39.4832 131.204 39.2739 131.196 39.1231L131.183 38.4447C131.175 38.294 131.17 38.0762 131.17 37.7915C131.17 37.7245 131.141 37.691 131.082 37.691C131.048 37.691 131.015 37.7328 130.981 37.8166L130.842 38.1558L130.728 38.4698C130.711 38.5201 130.695 38.5704 130.678 38.6206C130.661 38.6709 130.64 38.7169 130.614 38.7588L130.551 38.9095C130.475 39.0771 130.379 39.2655 130.261 39.4749C130.134 39.701 129.978 39.8811 129.793 40.0151C129.692 40.0737 129.604 40.103 129.528 40.103H129.338C129.237 40.103 129.153 40.0946 129.086 40.0779H128.555C128.218 39.5419 127.902 38.9556 127.607 38.3191L127.418 37.8543C127.367 37.7454 127.333 37.691 127.317 37.691C127.258 37.691 127.228 37.7245 127.228 37.7915V38.3819C127.228 38.9682 127.22 39.3995 127.203 39.6759C127.186 40.1114 127.157 40.4129 127.114 40.5804C127.106 40.6893 127.081 40.7437 127.039 40.7437H126.95L126.887 40.7312C126.601 40.7479 126.373 40.7647 126.205 40.7814C126.104 40.7898 125.927 40.8023 125.674 40.8191C125.421 40.8358 125.185 40.8442 124.966 40.8442Z" fill="url(#paint10_linear)"/>
<defs>
<linearGradient id="paint0_linear" x1="-39.8561" y1="36.619" x2="135.635" y2="36.619" gradientUnits="userSpaceOnUse">
<stop stop-color="white"/>
<stop offset="1" stop-color="white"/>
</linearGradient>
<linearGradient id="paint1_linear" x1="-39.8561" y1="36.619" x2="135.635" y2="36.619" gradientUnits="userSpaceOnUse">
<stop stop-color="white"/>
<stop offset="1" stop-color="white"/>
</linearGradient>
<linearGradient id="paint2_linear" x1="-39.8561" y1="36.619" x2="135.635" y2="36.619" gradientUnits="userSpaceOnUse">
<stop stop-color="white"/>
<stop offset="1" stop-color="white"/>
</linearGradient>
<linearGradient id="paint3_linear" x1="-39.8561" y1="36.619" x2="135.635" y2="36.619" gradientUnits="userSpaceOnUse">
<stop stop-color="white"/>
<stop offset="1" stop-color="white"/>
</linearGradient>
<linearGradient id="paint4_linear" x1="-39.8561" y1="36.619" x2="135.635" y2="36.619" gradientUnits="userSpaceOnUse">
<stop stop-color="white"/>
<stop offset="1" stop-color="white"/>
</linearGradient>
<linearGradient id="paint5_linear" x1="-39.8561" y1="36.619" x2="135.635" y2="36.619" gradientUnits="userSpaceOnUse">
<stop stop-color="white"/>
<stop offset="1" stop-color="white"/>
</linearGradient>
<linearGradient id="paint6_linear" x1="-39.8561" y1="36.619" x2="135.635" y2="36.619" gradientUnits="userSpaceOnUse">
<stop stop-color="white"/>
<stop offset="1" stop-color="white"/>
</linearGradient>
<linearGradient id="paint7_linear" x1="-39.8561" y1="36.619" x2="135.635" y2="36.619" gradientUnits="userSpaceOnUse">
<stop stop-color="white"/>
<stop offset="1" stop-color="white"/>
</linearGradient>
<linearGradient id="paint8_linear" x1="-39.8561" y1="36.619" x2="135.635" y2="36.619" gradientUnits="userSpaceOnUse">
<stop stop-color="white"/>
<stop offset="1" stop-color="white"/>
</linearGradient>
<linearGradient id="paint9_linear" x1="-39.8561" y1="36.619" x2="135.635" y2="36.619" gradientUnits="userSpaceOnUse">
<stop stop-color="white"/>
<stop offset="1" stop-color="white"/>
</linearGradient>
<linearGradient id="paint10_linear" x1="-39.8561" y1="36.619" x2="135.635" y2="36.619" gradientUnits="userSpaceOnUse">
<stop stop-color="white"/>
<stop offset="1" stop-color="white"/>
</linearGradient>
</defs>
</svg>
